<mxfile host="app.diagrams.net" modified="2023-10-08T09:51:16.706Z" agent="Mozilla/5.0 (Windows NT 10.0; Win64; x64) AppleWebKit/537.36 (KHTML, like Gecko) Chrome/117.0.0.0 Safari/537.36" version="21.8.2" etag="SiVK_cZWS47XcOB4QnLN" type="github">
  <diagram name="Page-1" id="e6ZvLAPDSj2lqEdQ6oXV">
    <mxGraphModel>
      <root>
        <mxCell id="0" />
        <mxCell id="1" parent="0" />
      </root>
    </mxGraphModel>
  </diagram>
</mxfile>
